<svg width="58" height="58" viewBox="0 0 58 58" fill="none" xmlns="http://www.w3.org/2000/svg">
<path fill-rule="evenodd" clip-rule="evenodd" d="M45.5291 41.2864C53.4379 31.2778 52.7719 16.7095 43.5312 7.46878C33.5729 -2.48959 17.4271 -2.48959 7.46878 7.46878C-2.48959 17.4271 -2.48959 33.5729 7.46878 43.5312C16.7095 52.7719 31.2778 53.4379 41.2864 45.5291L52.0165 56.2591C53.1881 57.4307 55.0876 57.4307 56.2591 56.2591C57.4307 55.0876 57.4307 53.1881 56.2591 52.0165L45.5291 41.2864ZM39.2886 11.7114C46.9038 19.3266 46.9038 31.6734 39.2886 39.2886C31.6734 46.9038 19.3266 46.9038 11.7114 39.2886C4.09619 31.6734 4.09619 19.3266 11.7114 11.7114C19.3266 4.0962 31.6734 4.09619 39.2886 11.7114Z" fill="#262626"/>
</svg>
